<svg height="542" width="720" xmlns="http://www.w3.org/2000/svg">
<rect height="542" fill="#555" width="720"></rect>
<text fill="#7f7" font-family="Courier New" font-size="12" xml:space="preserve">
<tspan x="10" y="26">3 megabytes installed</tspan>
<tspan x="10" y="42"></tspan>
<tspan x="10" y="58">node_modules</tspan>
<tspan x="10" y="74">└─┬ coverify@1.4.1 </tspan>
<tspan x="10" y="90">  ├── convert-source-map@1.5.0 </tspan>
<tspan x="10" y="106">  ├─┬ falafel@1.2.0 </tspan>
<tspan x="10" y="122">  │ ├── acorn@1.2.2 </tspan>
<tspan x="10" y="138">  │ ├── foreach@2.0.5 </tspan>
<tspan x="10" y="154">  │ ├── isarray@0.0.1 </tspan>
<tspan x="10" y="170">  │ └── object-keys@1.0.11 </tspan>
<tspan x="10" y="186">  ├── minimist@1.2.0 </tspan>
<tspan x="10" y="202">  ├── slash@1.0.0 </tspan>
<tspan x="10" y="218">  ├─┬ source-map@0.4.4 </tspan>
<tspan x="10" y="234">  │ └── amdefine@1.0.1 </tspan>
<tspan x="10" y="250">  ├── split2@0.2.1 </tspan>
<tspan x="10" y="266">  ├─┬ stream-combiner2@1.1.1 </tspan>
<tspan x="10" y="282">  │ ├─┬ duplexer2@0.1.4 </tspan>
<tspan x="10" y="298">  │ │ └─┬ readable-stream@2.2.9 </tspan>
<tspan x="10" y="314">  │ │   ├── isarray@1.0.0 </tspan>
<tspan x="10" y="330">  │ │   └── string_decoder@1.0.0 </tspan>
<tspan x="10" y="346">  │ └─┬ readable-stream@2.2.9 </tspan>
<tspan x="10" y="362">  │   ├── buffer-shims@1.0.0 </tspan>
<tspan x="10" y="378">  │   ├── core-util-is@1.0.2 </tspan>
<tspan x="10" y="394">  │   ├── inherits@2.0.3 </tspan>
<tspan x="10" y="410">  │   ├── isarray@1.0.0 </tspan>
<tspan x="10" y="426">  │   ├── process-nextick-args@1.0.7 </tspan>
<tspan x="10" y="442">  │   ├── string_decoder@1.0.0 </tspan>
<tspan x="10" y="458">  │   └── util-deprecate@1.0.2 </tspan>
<tspan x="10" y="474">  └─┬ through2@0.6.5 </tspan>
<tspan x="10" y="490">    ├─┬ readable-stream@1.0.34 </tspan>
<tspan x="10" y="506">    │ └── string_decoder@0.10.31 </tspan>
<tspan x="10" y="522">    └── xtend@4.0.1</tspan>
</text>
</svg>
